<mxfile host="app.diagrams.net" agent="Mozilla/5.0 (Windows NT 10.0; Win64; x64) AppleWebKit/537.36 (KHTML, like Gecko) Chrome/133.0.0.0 Safari/537.36" version="26.1.0">
  <diagram name="Page-1" id="adxUdrv2RzxXJWHSagjr">
    <mxGraphModel dx="1909" dy="949" grid="1" gridSize="10" guides="1" tooltips="1" connect="1" arrows="1" fold="1" page="1" pageScale="1" pageWidth="850" pageHeight="1100" math="0" shadow="0">
      <root>
        <mxCell id="0" />
        <mxCell id="1" parent="0" />
        <mxCell id="NUH6EPOuR7HffUeET8lI-7" value="" style="edgeStyle=orthogonalEdgeStyle;rounded=0;orthogonalLoop=1;jettySize=auto;html=1;" parent="1" source="NUH6EPOuR7HffUeET8lI-1" target="NUH6EPOuR7HffUeET8lI-6" edge="1">
          <mxGeometry relative="1" as="geometry" />
        </mxCell>
        <mxCell id="NUH6EPOuR7HffUeET8lI-19" value="" style="edgeStyle=orthogonalEdgeStyle;rounded=0;orthogonalLoop=1;jettySize=auto;html=1;endArrow=none;startFill=0;" parent="1" source="NUH6EPOuR7HffUeET8lI-1" target="NUH6EPOuR7HffUeET8lI-18" edge="1">
          <mxGeometry relative="1" as="geometry" />
        </mxCell>
        <mxCell id="0yb9Ve0yjG-txi7d2nAe-1" style="edgeStyle=orthogonalEdgeStyle;rounded=0;orthogonalLoop=1;jettySize=auto;html=1;exitX=0.25;exitY=1;exitDx=0;exitDy=0;" parent="1" source="NUH6EPOuR7HffUeET8lI-1" edge="1">
          <mxGeometry relative="1" as="geometry">
            <mxPoint x="150" y="280" as="targetPoint" />
          </mxGeometry>
        </mxCell>
        <mxCell id="JM8p7WPeFO0Lbpo73-l6-1" style="edgeStyle=orthogonalEdgeStyle;rounded=0;orthogonalLoop=1;jettySize=auto;html=1;exitX=1;exitY=1;exitDx=0;exitDy=0;entryX=0.5;entryY=0;entryDx=0;entryDy=0;endArrow=none;startFill=0;" edge="1" parent="1" source="NUH6EPOuR7HffUeET8lI-1" target="JM8p7WPeFO0Lbpo73-l6-2">
          <mxGeometry relative="1" as="geometry">
            <mxPoint x="560" y="380" as="targetPoint" />
          </mxGeometry>
        </mxCell>
        <mxCell id="NUH6EPOuR7HffUeET8lI-1" value="&lt;font style=&quot;font-size: 35px;&quot;&gt;Visitor&lt;/font&gt;" style="rounded=0;whiteSpace=wrap;html=1;" parent="1" vertex="1">
          <mxGeometry x="190" y="150" width="160" height="70" as="geometry" />
        </mxCell>
        <mxCell id="NUH6EPOuR7HffUeET8lI-6" value="&lt;font style=&quot;font-size: 15px;&quot;&gt;Visitor_id&lt;/font&gt;" style="ellipse;whiteSpace=wrap;html=1;rounded=0;" parent="1" vertex="1">
          <mxGeometry x="470" y="162.5" width="80" height="45" as="geometry" />
        </mxCell>
        <mxCell id="NUH6EPOuR7HffUeET8lI-8" value="" style="edgeStyle=orthogonalEdgeStyle;rounded=0;orthogonalLoop=1;jettySize=auto;html=1;exitX=1;exitY=0.25;exitDx=0;exitDy=0;" parent="1" source="NUH6EPOuR7HffUeET8lI-1" target="NUH6EPOuR7HffUeET8lI-9" edge="1">
          <mxGeometry relative="1" as="geometry">
            <mxPoint x="400" y="167.5" as="sourcePoint" />
            <Array as="points">
              <mxPoint x="350" y="160" />
              <mxPoint x="440" y="160" />
            </Array>
          </mxGeometry>
        </mxCell>
        <mxCell id="NUH6EPOuR7HffUeET8lI-9" value="&lt;font style=&quot;font-size: 15px;&quot;&gt;Visit_time&lt;/font&gt;" style="ellipse;whiteSpace=wrap;html=1;rounded=0;" parent="1" vertex="1">
          <mxGeometry x="400" y="70" width="80" height="45" as="geometry" />
        </mxCell>
        <mxCell id="NUH6EPOuR7HffUeET8lI-10" value="" style="edgeStyle=orthogonalEdgeStyle;rounded=0;orthogonalLoop=1;jettySize=auto;html=1;exitX=0.795;exitY=-0.034;exitDx=0;exitDy=0;exitPerimeter=0;" parent="1" source="NUH6EPOuR7HffUeET8lI-1" target="NUH6EPOuR7HffUeET8lI-11" edge="1">
          <mxGeometry relative="1" as="geometry">
            <mxPoint x="180" y="90" as="sourcePoint" />
          </mxGeometry>
        </mxCell>
        <mxCell id="NUH6EPOuR7HffUeET8lI-11" value="&lt;font style=&quot;font-size: 15px;&quot;&gt;Visit_Reason&lt;/font&gt;" style="ellipse;whiteSpace=wrap;html=1;rounded=0;" parent="1" vertex="1">
          <mxGeometry x="290" y="60" width="100" height="50" as="geometry" />
        </mxCell>
        <mxCell id="NUH6EPOuR7HffUeET8lI-12" value="" style="edgeStyle=orthogonalEdgeStyle;rounded=0;orthogonalLoop=1;jettySize=auto;html=1;exitX=0.445;exitY=0.023;exitDx=0;exitDy=0;exitPerimeter=0;" parent="1" source="NUH6EPOuR7HffUeET8lI-1" target="NUH6EPOuR7HffUeET8lI-13" edge="1">
          <mxGeometry relative="1" as="geometry">
            <mxPoint x="80" y="90" as="sourcePoint" />
          </mxGeometry>
        </mxCell>
        <mxCell id="NUH6EPOuR7HffUeET8lI-13" value="&lt;font style=&quot;font-size: 15px;&quot;&gt;NAME&lt;/font&gt;" style="ellipse;whiteSpace=wrap;html=1;rounded=0;" parent="1" vertex="1">
          <mxGeometry x="200" y="50" width="80" height="45" as="geometry" />
        </mxCell>
        <mxCell id="NUH6EPOuR7HffUeET8lI-15" value="" style="edgeStyle=orthogonalEdgeStyle;rounded=0;orthogonalLoop=1;jettySize=auto;html=1;exitX=0;exitY=0.5;exitDx=0;exitDy=0;" parent="1" source="NUH6EPOuR7HffUeET8lI-1" target="NUH6EPOuR7HffUeET8lI-16" edge="1">
          <mxGeometry relative="1" as="geometry">
            <mxPoint x="-30" y="110" as="sourcePoint" />
          </mxGeometry>
        </mxCell>
        <mxCell id="NUH6EPOuR7HffUeET8lI-16" value="&lt;font style=&quot;font-size: 15px;&quot;&gt;ID_NO&lt;/font&gt;" style="ellipse;whiteSpace=wrap;html=1;rounded=0;" parent="1" vertex="1">
          <mxGeometry x="90" y="70" width="80" height="45" as="geometry" />
        </mxCell>
        <mxCell id="NUH6EPOuR7HffUeET8lI-18" value="receive&amp;nbsp;" style="rhombus;whiteSpace=wrap;html=1;rounded=0;" parent="1" vertex="1">
          <mxGeometry x="230" y="400" width="80" height="80" as="geometry" />
        </mxCell>
        <mxCell id="JM8p7WPeFO0Lbpo73-l6-3" style="edgeStyle=orthogonalEdgeStyle;rounded=0;orthogonalLoop=1;jettySize=auto;html=1;entryX=1;entryY=0.5;entryDx=0;entryDy=0;endArrow=none;startFill=0;" edge="1" parent="1" source="NUH6EPOuR7HffUeET8lI-23" target="JM8p7WPeFO0Lbpo73-l6-2">
          <mxGeometry relative="1" as="geometry" />
        </mxCell>
        <mxCell id="NUH6EPOuR7HffUeET8lI-23" value="&lt;font style=&quot;font-size: 35px;&quot;&gt;Vehicle&lt;/font&gt;" style="whiteSpace=wrap;html=1;rounded=0;" parent="1" vertex="1">
          <mxGeometry x="1030" y="300" width="140" height="60" as="geometry" />
        </mxCell>
        <mxCell id="NUH6EPOuR7HffUeET8lI-27" value="" style="edgeStyle=orthogonalEdgeStyle;rounded=0;orthogonalLoop=1;jettySize=auto;html=1;exitX=1;exitY=0.75;exitDx=0;exitDy=0;" parent="1" source="NUH6EPOuR7HffUeET8lI-23" target="NUH6EPOuR7HffUeET8lI-28" edge="1">
          <mxGeometry relative="1" as="geometry">
            <mxPoint x="1170" y="305" as="sourcePoint" />
            <Array as="points">
              <mxPoint x="1250" y="345" />
              <mxPoint x="1250" y="345" />
            </Array>
          </mxGeometry>
        </mxCell>
        <mxCell id="NUH6EPOuR7HffUeET8lI-50" value="" style="edgeStyle=orthogonalEdgeStyle;rounded=0;orthogonalLoop=1;jettySize=auto;html=1;" parent="1" source="NUH6EPOuR7HffUeET8lI-28" target="NUH6EPOuR7HffUeET8lI-49" edge="1">
          <mxGeometry relative="1" as="geometry" />
        </mxCell>
        <mxCell id="NUH6EPOuR7HffUeET8lI-53" value="" style="edgeStyle=orthogonalEdgeStyle;rounded=0;orthogonalLoop=1;jettySize=auto;html=1;" parent="1" source="NUH6EPOuR7HffUeET8lI-28" target="NUH6EPOuR7HffUeET8lI-52" edge="1">
          <mxGeometry relative="1" as="geometry" />
        </mxCell>
        <mxCell id="NUH6EPOuR7HffUeET8lI-28" value="&lt;span style=&quot;font-size: 15px;&quot;&gt;Plate&amp;nbsp;&lt;/span&gt;" style="ellipse;whiteSpace=wrap;html=1;rounded=0;" parent="1" vertex="1">
          <mxGeometry x="1340" y="320" width="80" height="45" as="geometry" />
        </mxCell>
        <mxCell id="NUH6EPOuR7HffUeET8lI-37" value="" style="edgeStyle=orthogonalEdgeStyle;rounded=0;orthogonalLoop=1;jettySize=auto;html=1;exitX=0.75;exitY=0;exitDx=0;exitDy=0;" parent="1" source="NUH6EPOuR7HffUeET8lI-23" target="NUH6EPOuR7HffUeET8lI-38" edge="1">
          <mxGeometry relative="1" as="geometry">
            <mxPoint x="1220" y="290" as="sourcePoint" />
          </mxGeometry>
        </mxCell>
        <mxCell id="NUH6EPOuR7HffUeET8lI-38" value="&lt;font style=&quot;font-size: 15px;&quot;&gt;Type&lt;/font&gt;" style="ellipse;whiteSpace=wrap;html=1;rounded=0;" parent="1" vertex="1">
          <mxGeometry x="1200" y="125" width="80" height="45" as="geometry" />
        </mxCell>
        <mxCell id="NUH6EPOuR7HffUeET8lI-43" value="" style="edgeStyle=orthogonalEdgeStyle;rounded=0;orthogonalLoop=1;jettySize=auto;html=1;exitX=0;exitY=0.25;exitDx=0;exitDy=0;entryX=0.5;entryY=1;entryDx=0;entryDy=0;" parent="1" source="NUH6EPOuR7HffUeET8lI-23" target="NUH6EPOuR7HffUeET8lI-44" edge="1">
          <mxGeometry relative="1" as="geometry">
            <mxPoint x="1075" y="275" as="sourcePoint" />
            <Array as="points">
              <mxPoint x="890" y="315" />
            </Array>
          </mxGeometry>
        </mxCell>
        <mxCell id="NUH6EPOuR7HffUeET8lI-44" value="&lt;font style=&quot;font-size: 15px;&quot;&gt;Vehicle_id&lt;/font&gt;" style="ellipse;whiteSpace=wrap;html=1;rounded=0;" parent="1" vertex="1">
          <mxGeometry x="850" y="170" width="80" height="45" as="geometry" />
        </mxCell>
        <mxCell id="NUH6EPOuR7HffUeET8lI-45" value="" style="edgeStyle=orthogonalEdgeStyle;rounded=0;orthogonalLoop=1;jettySize=auto;html=1;exitX=0.25;exitY=0;exitDx=0;exitDy=0;" parent="1" source="NUH6EPOuR7HffUeET8lI-23" target="NUH6EPOuR7HffUeET8lI-46" edge="1">
          <mxGeometry relative="1" as="geometry">
            <mxPoint x="840" y="182.5" as="sourcePoint" />
          </mxGeometry>
        </mxCell>
        <mxCell id="NUH6EPOuR7HffUeET8lI-46" value="&lt;font style=&quot;font-size: 15px;&quot;&gt;Visitor_id&lt;/font&gt;" style="ellipse;whiteSpace=wrap;html=1;rounded=0;" parent="1" vertex="1">
          <mxGeometry x="940" y="125" width="80" height="45" as="geometry" />
        </mxCell>
        <mxCell id="NUH6EPOuR7HffUeET8lI-49" value="&lt;span style=&quot;font-size: 15px;&quot;&gt;Number&lt;/span&gt;" style="ellipse;whiteSpace=wrap;html=1;rounded=0;" parent="1" vertex="1">
          <mxGeometry x="1420" y="230" width="80" height="45" as="geometry" />
        </mxCell>
        <mxCell id="NUH6EPOuR7HffUeET8lI-52" value="&lt;span style=&quot;font-size: 15px;&quot;&gt;letters&lt;/span&gt;" style="ellipse;whiteSpace=wrap;html=1;rounded=0;" parent="1" vertex="1">
          <mxGeometry x="1420" y="420" width="80" height="45" as="geometry" />
        </mxCell>
        <mxCell id="NUH6EPOuR7HffUeET8lI-65" value="" style="edgeStyle=orthogonalEdgeStyle;rounded=0;orthogonalLoop=1;jettySize=auto;html=1;" parent="1" source="NUH6EPOuR7HffUeET8lI-66" target="NUH6EPOuR7HffUeET8lI-67" edge="1">
          <mxGeometry relative="1" as="geometry">
            <Array as="points">
              <mxPoint x="1420" y="1090" />
              <mxPoint x="1420" y="1090" />
            </Array>
          </mxGeometry>
        </mxCell>
        <mxCell id="NUH6EPOuR7HffUeET8lI-77" style="edgeStyle=orthogonalEdgeStyle;rounded=0;orthogonalLoop=1;jettySize=auto;html=1;exitX=0.098;exitY=0.998;exitDx=0;exitDy=0;exitPerimeter=0;entryX=1;entryY=0.5;entryDx=0;entryDy=0;" parent="1" source="NUH6EPOuR7HffUeET8lI-66" target="NUH6EPOuR7HffUeET8lI-79" edge="1">
          <mxGeometry relative="1" as="geometry">
            <mxPoint x="830" y="1115" as="targetPoint" />
          </mxGeometry>
        </mxCell>
        <mxCell id="NUH6EPOuR7HffUeET8lI-80" style="edgeStyle=orthogonalEdgeStyle;rounded=0;orthogonalLoop=1;jettySize=auto;html=1;entryX=0.5;entryY=0;entryDx=0;entryDy=0;" parent="1" source="NUH6EPOuR7HffUeET8lI-66" target="NUH6EPOuR7HffUeET8lI-81" edge="1">
          <mxGeometry relative="1" as="geometry">
            <mxPoint x="1000" y="1205" as="targetPoint" />
          </mxGeometry>
        </mxCell>
        <mxCell id="NUH6EPOuR7HffUeET8lI-82" style="edgeStyle=orthogonalEdgeStyle;rounded=0;orthogonalLoop=1;jettySize=auto;html=1;exitX=0.75;exitY=1;exitDx=0;exitDy=0;entryX=0.5;entryY=0;entryDx=0;entryDy=0;" parent="1" source="NUH6EPOuR7HffUeET8lI-66" target="NUH6EPOuR7HffUeET8lI-83" edge="1">
          <mxGeometry relative="1" as="geometry">
            <mxPoint x="1280" y="1230" as="targetPoint" />
            <Array as="points">
              <mxPoint x="1170" y="1178" />
              <mxPoint x="1245" y="1178" />
            </Array>
          </mxGeometry>
        </mxCell>
        <mxCell id="NUH6EPOuR7HffUeET8lI-124" style="edgeStyle=orthogonalEdgeStyle;rounded=0;orthogonalLoop=1;jettySize=auto;html=1;exitX=1;exitY=1;exitDx=0;exitDy=0;entryX=0;entryY=0.5;entryDx=0;entryDy=0;endArrow=none;startFill=0;" parent="1" source="NUH6EPOuR7HffUeET8lI-66" target="NUH6EPOuR7HffUeET8lI-123" edge="1">
          <mxGeometry relative="1" as="geometry">
            <Array as="points">
              <mxPoint x="1230" y="1160" />
              <mxPoint x="1440" y="1160" />
              <mxPoint x="1440" y="1310" />
            </Array>
          </mxGeometry>
        </mxCell>
        <mxCell id="NUH6EPOuR7HffUeET8lI-66" value="&lt;font style=&quot;font-size: 35px;&quot;&gt;Security Staff&lt;/font&gt;" style="rounded=0;whiteSpace=wrap;html=1;" parent="1" vertex="1">
          <mxGeometry x="990" y="1055" width="240" height="70" as="geometry" />
        </mxCell>
        <mxCell id="NUH6EPOuR7HffUeET8lI-67" value="&lt;font style=&quot;font-size: 15px;&quot;&gt;SEC_ID&lt;/font&gt;" style="ellipse;whiteSpace=wrap;html=1;rounded=0;" parent="1" vertex="1">
          <mxGeometry x="1450" y="1070" width="80" height="45" as="geometry" />
        </mxCell>
        <mxCell id="NUH6EPOuR7HffUeET8lI-68" value="" style="edgeStyle=orthogonalEdgeStyle;rounded=0;orthogonalLoop=1;jettySize=auto;html=1;" parent="1" edge="1">
          <mxGeometry relative="1" as="geometry">
            <mxPoint x="1350" y="1065" as="sourcePoint" />
            <Array as="points">
              <mxPoint x="1230" y="1065" />
              <mxPoint x="1320" y="1065" />
            </Array>
            <mxPoint x="1420" y="1010" as="targetPoint" />
          </mxGeometry>
        </mxCell>
        <mxCell id="NUH6EPOuR7HffUeET8lI-69" value="&lt;font style=&quot;font-size: 15px;&quot;&gt;Shift_time&lt;/font&gt;" style="ellipse;whiteSpace=wrap;html=1;rounded=0;" parent="1" vertex="1">
          <mxGeometry x="1380" y="965" width="80" height="45" as="geometry" />
        </mxCell>
        <mxCell id="NUH6EPOuR7HffUeET8lI-70" value="" style="edgeStyle=orthogonalEdgeStyle;rounded=0;orthogonalLoop=1;jettySize=auto;html=1;exitX=0.795;exitY=-0.034;exitDx=0;exitDy=0;exitPerimeter=0;" parent="1" source="NUH6EPOuR7HffUeET8lI-66" target="NUH6EPOuR7HffUeET8lI-71" edge="1">
          <mxGeometry relative="1" as="geometry">
            <mxPoint x="980" y="995" as="sourcePoint" />
          </mxGeometry>
        </mxCell>
        <mxCell id="NUH6EPOuR7HffUeET8lI-71" value="&lt;font style=&quot;font-size: 15px;&quot;&gt;Role&lt;/font&gt;" style="ellipse;whiteSpace=wrap;html=1;rounded=0;" parent="1" vertex="1">
          <mxGeometry x="1170" y="950" width="100" height="50" as="geometry" />
        </mxCell>
        <mxCell id="NUH6EPOuR7HffUeET8lI-72" value="" style="edgeStyle=orthogonalEdgeStyle;rounded=0;orthogonalLoop=1;jettySize=auto;html=1;exitX=0.445;exitY=0.023;exitDx=0;exitDy=0;exitPerimeter=0;" parent="1" source="NUH6EPOuR7HffUeET8lI-66" target="NUH6EPOuR7HffUeET8lI-73" edge="1">
          <mxGeometry relative="1" as="geometry">
            <mxPoint x="880" y="995" as="sourcePoint" />
          </mxGeometry>
        </mxCell>
        <mxCell id="NUH6EPOuR7HffUeET8lI-73" value="&lt;font style=&quot;font-size: 15px;&quot;&gt;NAME&lt;/font&gt;" style="ellipse;whiteSpace=wrap;html=1;rounded=0;" parent="1" vertex="1">
          <mxGeometry x="1000" y="955" width="80" height="45" as="geometry" />
        </mxCell>
        <mxCell id="NUH6EPOuR7HffUeET8lI-74" value="" style="edgeStyle=orthogonalEdgeStyle;rounded=0;orthogonalLoop=1;jettySize=auto;html=1;exitX=0;exitY=0.5;exitDx=0;exitDy=0;" parent="1" source="NUH6EPOuR7HffUeET8lI-66" target="NUH6EPOuR7HffUeET8lI-75" edge="1">
          <mxGeometry relative="1" as="geometry">
            <mxPoint x="770" y="1015" as="sourcePoint" />
          </mxGeometry>
        </mxCell>
        <mxCell id="NUH6EPOuR7HffUeET8lI-75" value="&lt;font style=&quot;font-size: 15px;&quot;&gt;ID_NO&lt;/font&gt;" style="ellipse;whiteSpace=wrap;html=1;rounded=0;" parent="1" vertex="1">
          <mxGeometry x="890" y="975" width="80" height="45" as="geometry" />
        </mxCell>
        <mxCell id="NUH6EPOuR7HffUeET8lI-79" value="Contact number" style="ellipse;whiteSpace=wrap;html=1;" parent="1" vertex="1">
          <mxGeometry x="870" y="1160" width="80" height="51.25" as="geometry" />
        </mxCell>
        <mxCell id="NUH6EPOuR7HffUeET8lI-81" value="Password" style="ellipse;whiteSpace=wrap;html=1;" parent="1" vertex="1">
          <mxGeometry x="1000" y="1243.75" width="80" height="51.25" as="geometry" />
        </mxCell>
        <mxCell id="NUH6EPOuR7HffUeET8lI-83" value="user_id" style="ellipse;whiteSpace=wrap;html=1;" parent="1" vertex="1">
          <mxGeometry x="1200" y="1245" width="90" height="50" as="geometry" />
        </mxCell>
        <mxCell id="NUH6EPOuR7HffUeET8lI-85" value="" style="edgeStyle=orthogonalEdgeStyle;rounded=0;orthogonalLoop=1;jettySize=auto;html=1;" parent="1" source="NUH6EPOuR7HffUeET8lI-86" target="NUH6EPOuR7HffUeET8lI-87" edge="1">
          <mxGeometry relative="1" as="geometry">
            <Array as="points">
              <mxPoint x="290" y="867.5" />
              <mxPoint x="290" y="867.5" />
            </Array>
          </mxGeometry>
        </mxCell>
        <mxCell id="NUH6EPOuR7HffUeET8lI-96" style="edgeStyle=orthogonalEdgeStyle;rounded=0;orthogonalLoop=1;jettySize=auto;html=1;entryX=0.5;entryY=1;entryDx=0;entryDy=0;endArrow=none;startFill=0;" parent="1" target="NUH6EPOuR7HffUeET8lI-18" edge="1">
          <mxGeometry relative="1" as="geometry">
            <mxPoint x="270" y="717" as="sourcePoint" />
            <Array as="points">
              <mxPoint x="270" y="717" />
            </Array>
          </mxGeometry>
        </mxCell>
        <mxCell id="NUH6EPOuR7HffUeET8lI-97" style="edgeStyle=orthogonalEdgeStyle;rounded=0;orthogonalLoop=1;jettySize=auto;html=1;exitX=1;exitY=1;exitDx=0;exitDy=0;entryX=0.5;entryY=0;entryDx=0;entryDy=0;" parent="1" source="NUH6EPOuR7HffUeET8lI-86" target="NUH6EPOuR7HffUeET8lI-100" edge="1">
          <mxGeometry relative="1" as="geometry">
            <mxPoint x="660" y="1030" as="targetPoint" />
            <Array as="points">
              <mxPoint x="370" y="820" />
              <mxPoint x="560" y="820" />
              <mxPoint x="560" y="1070" />
              <mxPoint x="540" y="1070" />
            </Array>
          </mxGeometry>
        </mxCell>
        <mxCell id="NUH6EPOuR7HffUeET8lI-86" value="&lt;font style=&quot;font-size: 35px;&quot;&gt;Permit&lt;/font&gt;" style="rounded=0;whiteSpace=wrap;html=1;" parent="1" vertex="1">
          <mxGeometry x="210" y="717.5" width="160" height="70" as="geometry" />
        </mxCell>
        <mxCell id="NUH6EPOuR7HffUeET8lI-87" value="&lt;span style=&quot;font-size: 15px;&quot;&gt;Vehicle_ID&lt;/span&gt;" style="ellipse;whiteSpace=wrap;html=1;rounded=0;" parent="1" vertex="1">
          <mxGeometry x="250" y="940" width="80" height="45" as="geometry" />
        </mxCell>
        <mxCell id="NUH6EPOuR7HffUeET8lI-88" value="" style="edgeStyle=orthogonalEdgeStyle;rounded=0;orthogonalLoop=1;jettySize=auto;html=1;exitX=0.659;exitY=1.013;exitDx=0;exitDy=0;exitPerimeter=0;" parent="1" source="NUH6EPOuR7HffUeET8lI-86" target="NUH6EPOuR7HffUeET8lI-89" edge="1">
          <mxGeometry relative="1" as="geometry">
            <mxPoint x="420" y="735" as="sourcePoint" />
            <Array as="points">
              <mxPoint x="315" y="877.5" />
              <mxPoint x="360" y="877.5" />
              <mxPoint x="360" y="937.5" />
              <mxPoint x="380" y="937.5" />
            </Array>
          </mxGeometry>
        </mxCell>
        <mxCell id="NUH6EPOuR7HffUeET8lI-89" value="&lt;font style=&quot;font-size: 15px;&quot;&gt;Start_date&lt;/font&gt;" style="ellipse;whiteSpace=wrap;html=1;rounded=0;" parent="1" vertex="1">
          <mxGeometry x="340" y="972.5" width="80" height="45" as="geometry" />
        </mxCell>
        <mxCell id="NUH6EPOuR7HffUeET8lI-90" value="" style="edgeStyle=orthogonalEdgeStyle;rounded=0;orthogonalLoop=1;jettySize=auto;html=1;exitX=0.75;exitY=1;exitDx=0;exitDy=0;" parent="1" source="NUH6EPOuR7HffUeET8lI-86" target="NUH6EPOuR7HffUeET8lI-91" edge="1">
          <mxGeometry relative="1" as="geometry">
            <mxPoint x="200" y="657.5" as="sourcePoint" />
            <Array as="points">
              <mxPoint x="337" y="787.5" />
              <mxPoint x="337" y="857.5" />
              <mxPoint x="480" y="857.5" />
            </Array>
          </mxGeometry>
        </mxCell>
        <mxCell id="NUH6EPOuR7HffUeET8lI-91" value="&lt;font style=&quot;font-size: 15px;&quot;&gt;Expiry_date&lt;/font&gt;" style="ellipse;whiteSpace=wrap;html=1;rounded=0;" parent="1" vertex="1">
          <mxGeometry x="440" y="970" width="100" height="50" as="geometry" />
        </mxCell>
        <mxCell id="NUH6EPOuR7HffUeET8lI-92" value="" style="edgeStyle=orthogonalEdgeStyle;rounded=0;orthogonalLoop=1;jettySize=auto;html=1;exitX=0;exitY=0.75;exitDx=0;exitDy=0;" parent="1" source="NUH6EPOuR7HffUeET8lI-86" target="NUH6EPOuR7HffUeET8lI-93" edge="1">
          <mxGeometry relative="1" as="geometry">
            <mxPoint x="100" y="657.5" as="sourcePoint" />
          </mxGeometry>
        </mxCell>
        <mxCell id="NUH6EPOuR7HffUeET8lI-93" value="&lt;font style=&quot;font-size: 15px;&quot;&gt;Permit_ID&lt;/font&gt;" style="ellipse;whiteSpace=wrap;html=1;rounded=0;" parent="1" vertex="1">
          <mxGeometry x="40" y="847.5" width="80" height="45" as="geometry" />
        </mxCell>
        <mxCell id="NUH6EPOuR7HffUeET8lI-94" value="" style="edgeStyle=orthogonalEdgeStyle;rounded=0;orthogonalLoop=1;jettySize=auto;html=1;exitX=0.25;exitY=1;exitDx=0;exitDy=0;" parent="1" source="NUH6EPOuR7HffUeET8lI-86" target="NUH6EPOuR7HffUeET8lI-95" edge="1">
          <mxGeometry relative="1" as="geometry">
            <mxPoint x="-10" y="677.5" as="sourcePoint" />
          </mxGeometry>
        </mxCell>
        <mxCell id="NUH6EPOuR7HffUeET8lI-95" value="&lt;span style=&quot;font-size: 15px;&quot;&gt;Visitor_ID&lt;/span&gt;" style="ellipse;whiteSpace=wrap;html=1;rounded=0;" parent="1" vertex="1">
          <mxGeometry x="120" y="915" width="80" height="45" as="geometry" />
        </mxCell>
        <mxCell id="NUH6EPOuR7HffUeET8lI-100" value="&lt;font style=&quot;font-size: 15px;&quot;&gt;Permit_type&lt;/font&gt;" style="ellipse;whiteSpace=wrap;html=1;rounded=0;" parent="1" vertex="1">
          <mxGeometry x="490" y="1125" width="100" height="50" as="geometry" />
        </mxCell>
        <mxCell id="NUH6EPOuR7HffUeET8lI-104" style="edgeStyle=orthogonalEdgeStyle;rounded=0;orthogonalLoop=1;jettySize=auto;html=1;exitX=0;exitY=0.5;exitDx=0;exitDy=0;entryX=1;entryY=0.5;entryDx=0;entryDy=0;endArrow=none;startFill=0;" parent="1" source="NUH6EPOuR7HffUeET8lI-103" target="NUH6EPOuR7HffUeET8lI-86" edge="1">
          <mxGeometry relative="1" as="geometry">
            <Array as="points">
              <mxPoint x="650" y="1110" />
              <mxPoint x="650" y="752" />
            </Array>
          </mxGeometry>
        </mxCell>
        <mxCell id="NUH6EPOuR7HffUeET8lI-105" value="" style="edgeStyle=orthogonalEdgeStyle;rounded=0;orthogonalLoop=1;jettySize=auto;html=1;" parent="1" source="NUH6EPOuR7HffUeET8lI-110" target="NUH6EPOuR7HffUeET8lI-111" edge="1">
          <mxGeometry relative="1" as="geometry">
            <Array as="points">
              <mxPoint x="2300" y="1290" />
              <mxPoint x="2300" y="1318" />
            </Array>
          </mxGeometry>
        </mxCell>
        <mxCell id="NUH6EPOuR7HffUeET8lI-106" style="edgeStyle=orthogonalEdgeStyle;rounded=0;orthogonalLoop=1;jettySize=auto;html=1;exitX=0.098;exitY=0.998;exitDx=0;exitDy=0;exitPerimeter=0;entryX=1;entryY=0.5;entryDx=0;entryDy=0;" parent="1" source="NUH6EPOuR7HffUeET8lI-110" target="NUH6EPOuR7HffUeET8lI-120" edge="1">
          <mxGeometry relative="1" as="geometry">
            <mxPoint x="1830" y="1315" as="targetPoint" />
          </mxGeometry>
        </mxCell>
        <mxCell id="NUH6EPOuR7HffUeET8lI-107" style="edgeStyle=orthogonalEdgeStyle;rounded=0;orthogonalLoop=1;jettySize=auto;html=1;entryX=0.5;entryY=0;entryDx=0;entryDy=0;" parent="1" source="NUH6EPOuR7HffUeET8lI-110" target="NUH6EPOuR7HffUeET8lI-121" edge="1">
          <mxGeometry relative="1" as="geometry">
            <mxPoint x="2000" y="1405" as="targetPoint" />
          </mxGeometry>
        </mxCell>
        <mxCell id="NUH6EPOuR7HffUeET8lI-108" style="edgeStyle=orthogonalEdgeStyle;rounded=0;orthogonalLoop=1;jettySize=auto;html=1;exitX=0.75;exitY=1;exitDx=0;exitDy=0;entryX=0.5;entryY=0;entryDx=0;entryDy=0;" parent="1" source="NUH6EPOuR7HffUeET8lI-110" target="NUH6EPOuR7HffUeET8lI-122" edge="1">
          <mxGeometry relative="1" as="geometry">
            <mxPoint x="2280" y="1430" as="targetPoint" />
          </mxGeometry>
        </mxCell>
        <mxCell id="NUH6EPOuR7HffUeET8lI-109" style="edgeStyle=orthogonalEdgeStyle;rounded=0;orthogonalLoop=1;jettySize=auto;html=1;exitX=0;exitY=0.75;exitDx=0;exitDy=0;endArrow=none;startFill=0;" parent="1" source="NUH6EPOuR7HffUeET8lI-110" edge="1">
          <mxGeometry relative="1" as="geometry">
            <mxPoint x="1780" y="1309.9999999999998" as="targetPoint" />
            <Array as="points">
              <mxPoint x="1990" y="1310" />
            </Array>
          </mxGeometry>
        </mxCell>
        <mxCell id="NUH6EPOuR7HffUeET8lI-125" style="edgeStyle=orthogonalEdgeStyle;rounded=0;orthogonalLoop=1;jettySize=auto;html=1;exitX=1;exitY=1;exitDx=0;exitDy=0;" parent="1" source="NUH6EPOuR7HffUeET8lI-110" edge="1">
          <mxGeometry relative="1" as="geometry">
            <mxPoint x="2480" y="1459.9999999999998" as="targetPoint" />
            <Array as="points">
              <mxPoint x="2230" y="1360" />
              <mxPoint x="2480" y="1360" />
            </Array>
          </mxGeometry>
        </mxCell>
        <mxCell id="NUH6EPOuR7HffUeET8lI-127" style="edgeStyle=orthogonalEdgeStyle;rounded=0;orthogonalLoop=1;jettySize=auto;html=1;exitX=0;exitY=0;exitDx=0;exitDy=0;" parent="1" source="NUH6EPOuR7HffUeET8lI-128" edge="1">
          <mxGeometry relative="1" as="geometry">
            <mxPoint x="1970" y="1090" as="targetPoint" />
          </mxGeometry>
        </mxCell>
        <mxCell id="NUH6EPOuR7HffUeET8lI-110" value="&lt;font style=&quot;font-size: 35px;&quot;&gt;Emergency Event&lt;/font&gt;" style="rounded=0;whiteSpace=wrap;html=1;" parent="1" vertex="1">
          <mxGeometry x="1990" y="1255" width="240" height="70" as="geometry" />
        </mxCell>
        <mxCell id="NUH6EPOuR7HffUeET8lI-111" value="&lt;font style=&quot;font-size: 15px;&quot;&gt;Emerg._ID&lt;/font&gt;" style="ellipse;whiteSpace=wrap;html=1;rounded=0;" parent="1" vertex="1">
          <mxGeometry x="2410" y="1295" width="80" height="45" as="geometry" />
        </mxCell>
        <mxCell id="NUH6EPOuR7HffUeET8lI-112" value="" style="edgeStyle=orthogonalEdgeStyle;rounded=0;orthogonalLoop=1;jettySize=auto;html=1;" parent="1" edge="1">
          <mxGeometry relative="1" as="geometry">
            <mxPoint x="2350" y="1265" as="sourcePoint" />
            <Array as="points">
              <mxPoint x="2230" y="1265" />
              <mxPoint x="2320" y="1265" />
            </Array>
            <mxPoint x="2420" y="1210" as="targetPoint" />
          </mxGeometry>
        </mxCell>
        <mxCell id="NUH6EPOuR7HffUeET8lI-113" value="&lt;font style=&quot;font-size: 15px;&quot;&gt;Resolution _Status&lt;/font&gt;" style="ellipse;whiteSpace=wrap;html=1;rounded=0;" parent="1" vertex="1">
          <mxGeometry x="2370" y="1160" width="120" height="60" as="geometry" />
        </mxCell>
        <mxCell id="NUH6EPOuR7HffUeET8lI-114" value="" style="edgeStyle=orthogonalEdgeStyle;rounded=0;orthogonalLoop=1;jettySize=auto;html=1;exitX=0.795;exitY=-0.034;exitDx=0;exitDy=0;exitPerimeter=0;" parent="1" source="NUH6EPOuR7HffUeET8lI-110" target="NUH6EPOuR7HffUeET8lI-115" edge="1">
          <mxGeometry relative="1" as="geometry">
            <mxPoint x="1980" y="1195" as="sourcePoint" />
          </mxGeometry>
        </mxCell>
        <mxCell id="NUH6EPOuR7HffUeET8lI-115" value="&lt;font style=&quot;font-size: 15px;&quot;&gt;action_taken&lt;/font&gt;" style="ellipse;whiteSpace=wrap;html=1;rounded=0;" parent="1" vertex="1">
          <mxGeometry x="2200" y="1110" width="100" height="50" as="geometry" />
        </mxCell>
        <mxCell id="NUH6EPOuR7HffUeET8lI-116" value="" style="edgeStyle=orthogonalEdgeStyle;rounded=0;orthogonalLoop=1;jettySize=auto;html=1;exitX=0.445;exitY=0.023;exitDx=0;exitDy=0;exitPerimeter=0;" parent="1" source="NUH6EPOuR7HffUeET8lI-110" target="NUH6EPOuR7HffUeET8lI-117" edge="1">
          <mxGeometry relative="1" as="geometry">
            <mxPoint x="1880" y="1195" as="sourcePoint" />
          </mxGeometry>
        </mxCell>
        <mxCell id="NUH6EPOuR7HffUeET8lI-117" value="&lt;font style=&quot;font-size: 15px;&quot;&gt;Location&lt;/font&gt;" style="ellipse;whiteSpace=wrap;html=1;rounded=0;" parent="1" vertex="1">
          <mxGeometry x="2085" y="1080" width="80" height="45" as="geometry" />
        </mxCell>
        <mxCell id="NUH6EPOuR7HffUeET8lI-120" value="SEC._ID" style="ellipse;whiteSpace=wrap;html=1;" parent="1" vertex="1">
          <mxGeometry x="1750" y="1380" width="80" height="51.25" as="geometry" />
        </mxCell>
        <mxCell id="NUH6EPOuR7HffUeET8lI-121" value="Resolution_ Method" style="ellipse;whiteSpace=wrap;html=1;" parent="1" vertex="1">
          <mxGeometry x="1990" y="1490" width="80" height="51.25" as="geometry" />
        </mxCell>
        <mxCell id="NUH6EPOuR7HffUeET8lI-122" value="Cause_Desc." style="ellipse;whiteSpace=wrap;html=1;" parent="1" vertex="1">
          <mxGeometry x="2240" y="1470" width="90" height="50" as="geometry" />
        </mxCell>
        <mxCell id="NUH6EPOuR7HffUeET8lI-123" value="Handle" style="rhombus;whiteSpace=wrap;html=1;" parent="1" vertex="1">
          <mxGeometry x="1700" y="1270" width="80" height="80" as="geometry" />
        </mxCell>
        <mxCell id="NUH6EPOuR7HffUeET8lI-126" value="number of people involved&amp;nbsp;" style="ellipse;whiteSpace=wrap;html=1;" parent="1" vertex="1">
          <mxGeometry x="2430" y="1460" width="110" height="60" as="geometry" />
        </mxCell>
        <mxCell id="NUH6EPOuR7HffUeET8lI-129" value="Involves" style="rhombus;whiteSpace=wrap;html=1;" parent="1" vertex="1">
          <mxGeometry x="2073.75" y="1590" width="182.5" height="165" as="geometry" />
        </mxCell>
        <mxCell id="NUH6EPOuR7HffUeET8lI-130" style="edgeStyle=orthogonalEdgeStyle;rounded=0;orthogonalLoop=1;jettySize=auto;html=1;exitX=0.5;exitY=0;exitDx=0;exitDy=0;endArrow=none;startFill=0;entryX=0.659;entryY=1.032;entryDx=0;entryDy=0;entryPerimeter=0;" parent="1" source="NUH6EPOuR7HffUeET8lI-129" target="NUH6EPOuR7HffUeET8lI-110" edge="1">
          <mxGeometry relative="1" as="geometry">
            <mxPoint x="2149" y="1360" as="targetPoint" />
            <Array as="points">
              <mxPoint x="2165" y="1550" />
              <mxPoint x="2165" y="1428" />
              <mxPoint x="2150" y="1428" />
              <mxPoint x="2150" y="1327" />
            </Array>
          </mxGeometry>
        </mxCell>
        <mxCell id="NUH6EPOuR7HffUeET8lI-132" value="" style="edgeStyle=orthogonalEdgeStyle;rounded=0;orthogonalLoop=1;jettySize=auto;html=1;exitX=0;exitY=0.75;exitDx=0;exitDy=0;endArrow=none;startFill=0;" parent="1" source="NUH6EPOuR7HffUeET8lI-66" target="NUH6EPOuR7HffUeET8lI-103" edge="1">
          <mxGeometry relative="1" as="geometry">
            <mxPoint x="780" y="1109.9999999999998" as="targetPoint" />
            <mxPoint x="990" y="1108" as="sourcePoint" />
            <Array as="points">
              <mxPoint x="990" y="1110" />
            </Array>
          </mxGeometry>
        </mxCell>
        <mxCell id="NUH6EPOuR7HffUeET8lI-103" value="&lt;font style=&quot;font-size: 25px;&quot;&gt;granted&lt;/font&gt;" style="rhombus;whiteSpace=wrap;html=1;" parent="1" vertex="1">
          <mxGeometry x="710" y="1055" width="120" height="120" as="geometry" />
        </mxCell>
        <mxCell id="NUH6EPOuR7HffUeET8lI-133" value="" style="edgeStyle=orthogonalEdgeStyle;rounded=0;orthogonalLoop=1;jettySize=auto;html=1;exitX=0.75;exitY=1;exitDx=0;exitDy=0;" parent="1" source="NUH6EPOuR7HffUeET8lI-134" target="NUH6EPOuR7HffUeET8lI-135" edge="1">
          <mxGeometry relative="1" as="geometry" />
        </mxCell>
        <mxCell id="NUH6EPOuR7HffUeET8lI-144" style="edgeStyle=orthogonalEdgeStyle;rounded=0;orthogonalLoop=1;jettySize=auto;html=1;exitX=0.5;exitY=0;exitDx=0;exitDy=0;entryX=0.5;entryY=1;entryDx=0;entryDy=0;endArrow=none;startFill=0;" parent="1" source="NUH6EPOuR7HffUeET8lI-134" target="NUH6EPOuR7HffUeET8lI-129" edge="1">
          <mxGeometry relative="1" as="geometry">
            <Array as="points">
              <mxPoint x="2165" y="1900" />
            </Array>
          </mxGeometry>
        </mxCell>
        <mxCell id="NUH6EPOuR7HffUeET8lI-179" style="edgeStyle=orthogonalEdgeStyle;rounded=0;orthogonalLoop=1;jettySize=auto;html=1;exitX=0.5;exitY=1;exitDx=0;exitDy=0;entryX=0.5;entryY=0;entryDx=0;entryDy=0;" parent="1" source="NUH6EPOuR7HffUeET8lI-134" target="NUH6EPOuR7HffUeET8lI-182" edge="1">
          <mxGeometry relative="1" as="geometry">
            <mxPoint x="2270" y="2130" as="targetPoint" />
          </mxGeometry>
        </mxCell>
        <mxCell id="C7gqteIme6cWudR3UF6H-1" style="edgeStyle=orthogonalEdgeStyle;rounded=0;orthogonalLoop=1;jettySize=auto;html=1;exitX=1;exitY=0.5;exitDx=0;exitDy=0;entryX=0;entryY=0.5;entryDx=0;entryDy=0;" parent="1" source="NUH6EPOuR7HffUeET8lI-134" target="NUH6EPOuR7HffUeET8lI-137" edge="1">
          <mxGeometry relative="1" as="geometry" />
        </mxCell>
        <mxCell id="NUH6EPOuR7HffUeET8lI-134" value="&lt;font style=&quot;font-size: 35px;&quot;&gt;Involved Parties&lt;/font&gt;" style="rounded=0;whiteSpace=wrap;html=1;" parent="1" vertex="1">
          <mxGeometry x="2080" y="1900" width="170" height="80" as="geometry" />
        </mxCell>
        <mxCell id="NUH6EPOuR7HffUeET8lI-135" value="&lt;font style=&quot;font-size: 15px;&quot;&gt;Role&lt;/font&gt;" style="ellipse;whiteSpace=wrap;html=1;rounded=0;" parent="1" vertex="1">
          <mxGeometry x="2350" y="2090" width="80" height="45" as="geometry" />
        </mxCell>
        <mxCell id="NUH6EPOuR7HffUeET8lI-137" value="&lt;font style=&quot;font-size: 15px;&quot;&gt;Personal_ID&lt;/font&gt;" style="ellipse;whiteSpace=wrap;html=1;rounded=0;" parent="1" vertex="1">
          <mxGeometry x="2410" y="1890" width="100" height="60" as="geometry" />
        </mxCell>
        <mxCell id="NUH6EPOuR7HffUeET8lI-140" value="" style="edgeStyle=orthogonalEdgeStyle;rounded=0;orthogonalLoop=1;jettySize=auto;html=1;exitX=0.209;exitY=1.022;exitDx=0;exitDy=0;entryX=1;entryY=0.5;entryDx=0;entryDy=0;exitPerimeter=0;" parent="1" source="NUH6EPOuR7HffUeET8lI-134" target="NUH6EPOuR7HffUeET8lI-141" edge="1">
          <mxGeometry relative="1" as="geometry">
            <mxPoint x="1980" y="1850" as="sourcePoint" />
            <Array as="points">
              <mxPoint x="2115" y="2033" />
              <mxPoint x="1980" y="2033" />
              <mxPoint x="1980" y="2042" />
              <mxPoint x="1870" y="2042" />
            </Array>
          </mxGeometry>
        </mxCell>
        <mxCell id="NUH6EPOuR7HffUeET8lI-141" value="&lt;span style=&quot;font-size: 35px;&quot;&gt;Involved Parties&lt;/span&gt;" style="ellipse;whiteSpace=wrap;html=1;rounded=0;" parent="1" vertex="1">
          <mxGeometry x="1620" y="1995" width="210" height="95" as="geometry" />
        </mxCell>
        <mxCell id="NUH6EPOuR7HffUeET8lI-142" value="" style="edgeStyle=orthogonalEdgeStyle;rounded=0;orthogonalLoop=1;jettySize=auto;html=1;exitX=0;exitY=0.5;exitDx=0;exitDy=0;" parent="1" source="NUH6EPOuR7HffUeET8lI-134" target="NUH6EPOuR7HffUeET8lI-143" edge="1">
          <mxGeometry relative="1" as="geometry">
            <mxPoint x="1870" y="1870" as="sourcePoint" />
          </mxGeometry>
        </mxCell>
        <mxCell id="NUH6EPOuR7HffUeET8lI-143" value="&lt;font style=&quot;font-size: 26px;&quot;&gt;Emerg_ID&lt;/font&gt;" style="ellipse;whiteSpace=wrap;html=1;rounded=0;" parent="1" vertex="1">
          <mxGeometry x="1580" y="1840" width="185" height="80" as="geometry" />
        </mxCell>
        <mxCell id="NUH6EPOuR7HffUeET8lI-146" value="" style="edgeStyle=orthogonalEdgeStyle;rounded=0;orthogonalLoop=1;jettySize=auto;html=1;exitX=0;exitY=0;exitDx=0;exitDy=0;" parent="1" source="NUH6EPOuR7HffUeET8lI-110" target="NUH6EPOuR7HffUeET8lI-128" edge="1">
          <mxGeometry relative="1" as="geometry">
            <mxPoint x="1970" y="1090" as="targetPoint" />
            <mxPoint x="1990" y="1255" as="sourcePoint" />
            <Array as="points">
              <mxPoint x="1990" y="1185" />
              <mxPoint x="1975" y="1185" />
            </Array>
          </mxGeometry>
        </mxCell>
        <mxCell id="NUH6EPOuR7HffUeET8lI-128" value="&lt;span style=&quot;font-size: 15px;&quot;&gt;Reported date&lt;/span&gt;" style="ellipse;whiteSpace=wrap;html=1;rounded=0;" parent="1" vertex="1">
          <mxGeometry x="1930" y="1080" width="90" height="50" as="geometry" />
        </mxCell>
        <mxCell id="NUH6EPOuR7HffUeET8lI-182" value="&lt;strong style=&quot;font-size: 12px; text-align: left;&quot; data-start=&quot;39&quot; data-end=&quot;52&quot;&gt;Personal_Name&lt;/strong&gt;" style="ellipse;whiteSpace=wrap;html=1;fontSize=10;" parent="1" vertex="1">
          <mxGeometry x="2140" y="2150" width="155" height="65" as="geometry" />
        </mxCell>
        <mxCell id="0yb9Ve0yjG-txi7d2nAe-2" value="Contact number" style="ellipse;whiteSpace=wrap;html=1;" parent="1" vertex="1">
          <mxGeometry x="110" y="280" width="80" height="51.25" as="geometry" />
        </mxCell>
        <mxCell id="C7gqteIme6cWudR3UF6H-5" value="n" style="text;html=1;align=center;verticalAlign=middle;resizable=0;points=[];autosize=1;strokeColor=none;fillColor=none;" parent="1" vertex="1">
          <mxGeometry x="1525" y="1278" width="30" height="30" as="geometry" />
        </mxCell>
        <mxCell id="C7gqteIme6cWudR3UF6H-6" value="n" style="text;html=1;align=center;verticalAlign=middle;resizable=0;points=[];autosize=1;strokeColor=none;fillColor=none;" parent="1" vertex="1">
          <mxGeometry x="1880" y="1278" width="30" height="30" as="geometry" />
        </mxCell>
        <mxCell id="C7gqteIme6cWudR3UF6H-7" value="n" style="text;html=1;align=center;verticalAlign=middle;resizable=0;points=[];autosize=1;strokeColor=none;fillColor=none;" parent="1" vertex="1">
          <mxGeometry x="2180" y="1511.25" width="30" height="30" as="geometry" />
        </mxCell>
        <mxCell id="C7gqteIme6cWudR3UF6H-8" value="n" style="text;html=1;align=center;verticalAlign=middle;resizable=0;points=[];autosize=1;strokeColor=none;fillColor=none;" parent="1" vertex="1">
          <mxGeometry x="2180" y="1850" width="30" height="30" as="geometry" />
        </mxCell>
        <mxCell id="JM8p7WPeFO0Lbpo73-l6-2" value="&lt;font style=&quot;font-size: 25px;&quot;&gt;may own&lt;/font&gt;" style="rhombus;whiteSpace=wrap;html=1;" vertex="1" parent="1">
          <mxGeometry x="550" y="320" width="150" height="100" as="geometry" />
        </mxCell>
      </root>
    </mxGraphModel>
  </diagram>
</mxfile>
